<?xml version="1.0" encoding="UTF-8"?>
<svg width="1200pt" height="1200pt" version="1.1" viewBox="0 0 1200 1200" xmlns="http://www.w3.org/2000/svg">
 <g>
  <path d="m723.18 423.23-7.2852 8.9766c-1.8828-0.67188-3.875-1.0938-5.9883-1.0938-9.9375 0-18 8.0625-18 18 0 4.8125 1.9219 9.1562 4.9922 12.383l-101.18 199.78c-0.75781-0.097656-1.4883-0.22656-2.2695-0.22656-9.9375 0-18 8.0625-18 18 0 7.1641 4.2109 13.297 10.273 16.188l-23.82 227.1c-0.34766 3.3008 2.0391 6.2539 5.3398 6.5898 0.21484 0.023437 0.42188 0.035156 0.63672 0.035156 3.0234 0 5.6406-2.293 5.9531-5.375l23.82-227.09c7.9062-1.8945 13.812-8.9648 13.812-17.461 0-4.8125-1.9219-9.168-5.0039-12.395l101.18-199.77c0.75781 0.097656 1.5 0.22656 2.2812 0.22656 9.9375 0 18-8.0625 18-18 0-3.4336-1.0195-6.6133-2.6875-9.3477l7.2852-8.9766c2.0898-2.5664 1.6914-6.3477-0.875-8.4375-2.5859-2.0703-6.3633-1.6875-8.4648 0.89062z"/>
  <path d="m502.68 995.03-49.223 15.602c-3.2891-4.332-8.4375-7.1758-14.293-7.1758-8.1133 0-14.891 5.3984-17.137 12.781l-97.402 4.4531c-3.3125 0.15625-5.8672 2.9648-5.7227 6.2656 0.14453 3.2148 2.7969 5.7227 5.9883 5.7227h0.26562l97.344-4.4531c2.6758 6.5898 9.1211 11.23 16.656 11.23 9.7305 0 17.617-7.7383 17.941-17.387l49.211-15.602c3.1562-0.99609 4.9062-4.3672 3.8984-7.5234-0.98828-3.168-4.3359-4.9453-7.5273-3.9141z"/>
  <path d="m264.96 987.42c-23.16 0-42 18.84-42 42s18.84 42 42 42c23.16 0 42-18.84 42-42s-18.84-42-42-42zm0 60c-9.9258 0-18-8.0742-18-18s8.0742-18 18-18c9.9258 0 18 8.0742 18 18 0 9.9219-8.0781 18-18 18z"/>
  <path d="m561.59 940.64c-23.16 0-42 18.84-42 42 0 23.16 18.84 42 42 42s42-18.84 42-42c0-23.16-18.844-42-42-42zm0 60c-9.9258 0-18-8.0742-18-18s8.0742-18 18-18c9.9258 0 18 8.0742 18 18 0 9.9219-8.0781 18-18 18z"/>
  <path d="m765.65 338.44c-23.16 0-42 18.84-42 42s18.84 42 42 42c23.16 0 42-18.84 42-42s-18.852-42-42-42zm0 60c-9.9258 0-18-8.0742-18-18s8.0742-18 18-18c9.9258 0 18 8.0742 18 18 0 9.9219-8.0781 18-18 18z"/>
  <path d="m328.75 807.46c0-9.9375-8.0625-18-18-18-7.2617 0-13.488 4.332-16.332 10.523l-11.09-0.98438c-2.0039-7.7656-8.9883-13.523-17.375-13.523-9.9375 0-18 8.0625-18 18 0 3.8516 1.2344 7.4023 3.3008 10.332l-70.98 99.84c-1.5703-0.44531-3.1914-0.75781-4.8945-0.75781-9.9375 0-18 8.0625-18 18s8.0625 18 18 18c2.4727 0 4.8359-0.50391 6.9727-1.4023l37.812 41.605c1.1875 1.2969 2.8086 1.9688 4.4414 1.9688 1.4414 0 2.8789-0.51562 4.0312-1.5586 2.4609-2.2305 2.6406-6.0234 0.40625-8.4844l-37.871-41.664c1.3555-2.5312 2.1953-5.375 2.1953-8.4609 0-3.8516-1.2344-7.4023-3.2891-10.332l70.98-99.84c1.5703 0.44531 3.1914 0.75781 4.8945 0.75781 7.2617 0 13.488-4.332 16.332-10.523l11.09 0.98438c2.0039 7.7656 8.9883 13.523 17.363 13.523 9.9453-0.003907 18.012-8.0703 18.012-18.004z"/>
  <path d="m1026.4 372.38c-6.6719 0-12.422 3.6719-15.527 9.0586l-156.6-28.691 160.04-85.477c3.2031 2.9141 7.4141 4.7383 12.086 4.7383 9.9375 0 18-8.0625 18-18s-8.0625-18-18-18-18 8.0625-18 18c0 0.91016 0.13281 1.7891 0.26562 2.6641l-152.55 81.484 128.5-179.4c1.5859 0.45703 3.2266 0.78125 4.957 0.78125 9.9375 0 18-8.0625 18-18s-8.0625-18-18-18-18 8.0625-18 18c0 3.8281 1.2109 7.3672 3.2656 10.285l-133.59 186.5c-1.5859-0.45703-3.2266-0.78125-4.9688-0.78125-9.9375 0-18 8.0625-18 18s8.0625 18 18 18c6.6719 0 12.422-3.6719 15.527-9.0586l156.88 28.738c1.3789 8.5781 8.7461 15.145 17.711 15.145 9.9375 0 18-8.0625 18-18 0.003906-9.9336-8.0508-17.988-17.996-17.988z"/>
 </g>
</svg>
